<?xml version="1.0" encoding="iso-8859-1"?>
<!-- Uploaded to: SVG Repo, www.svgrepo.com, Generator: SVG Repo Mixer Tools -->
<svg fill="#000000" version="1.1" id="Layer_1" xmlns="http://www.w3.org/2000/svg" xmlns:xlink="http://www.w3.org/1999/xlink" 
	 viewBox="0 0 496 496" xml:space="preserve">
<g>
	<g>
		<g>
			<rect x="136" y="448" width="48" height="16"/>
			<path d="M320,80V40c0-22.056-17.944-40-40-40H40C17.944,0,0,17.944,0,40v416c0,22.056,17.944,40,40,40h240
				c22.056,0,40-17.944,40-40v-56h176V80H320z M16,40c0-13.232,10.768-24,24-24h240c13.232,0,24,10.768,24,24v8H16V40z M304,456
				c0,13.232-10.768,24-24,24H40c-13.232,0-24-10.768-24-24v-24h288V456z M304,416H16V64h288v16h-48v272H136c-4.416,0-8-3.584-8-8
				v-88.408c44.784-4.056,80-41.768,80-87.592v-32c0-19.312-13.768-35.472-32-39.192V80h-48v48h48v-14.528
				c9.288,3.312,16,12.112,16,22.528v32c0,39.704-32.296,72-72,72s-72-32.296-72-72v-32c0-10.416,6.704-19.216,16-22.528V128h48V80
				H64v16.808c-18.232,3.72-32,19.88-32,39.192v32c0,45.824,35.216,83.536,80,87.592V344c0,13.232,10.768,24,24,24h120v32h48V416z
				 M272,368h16v16h-16V368z M160,96v16h-16V96H160z M80,112V96h16v16H80z M448,384H304v-16h56c13.232,0,24-10.768,24-24v-17.136
				c13.76-3.576,24-15.992,24-30.864c0-17.648-14.352-32-32-32s-32,14.352-32,32c0,14.872,10.232,27.288,24,30.864V344
				c0,4.416-3.584,8-8,8h-56v-24c0-39.704,32.296-72,72-72c39.704,0,72,32.296,72,72V384z M376,312c-8.824,0-16-7.176-16-16
				c0-8.824,7.176-16,16-16c8.816,0,16,7.176,16,16C392,304.824,384.816,312,376,312z M480,384h-16v-56c0-48.52-39.48-88-88-88
				c-48.52,0-88,39.48-88,88v24h-16V96h208V384z"/>
			<path d="M440,176c0-35.288-28.712-64-64-64c-35.288,0-64,28.712-64,64c0,35.288,28.712,64,64,64C411.288,240,440,211.288,440,176
				z M376,224c-26.472,0-48-21.528-48-48s21.528-48,48-48s48,21.528,48,48S402.472,224,376,224z"/>
		</g>
	</g>
</g>
</svg>