<?xml version="1.0" encoding="iso-8859-1"?>
<!-- Uploaded to: SVG Repo, www.svgrepo.com, Generator: SVG Repo Mixer Tools -->
<svg fill="#000000" height="800px" width="800px" version="1.1" id="Layer_1" xmlns="http://www.w3.org/2000/svg" xmlns:xlink="http://www.w3.org/1999/xlink" 
	 viewBox="0 0 239.416 239.416" xml:space="preserve">
<g>
	<g>
		<g>
			<path d="M64.3,14.46c0.772,0,1.4-0.708,1.4-1.584V8.028c0-0.876-0.624-1.584-1.4-1.584c-0.772,0-1.4,0.708-1.4,1.584v4.848
				C62.9,13.752,63.524,14.46,64.3,14.46z"/>
			<path d="M76.32,14.46c0.772,0,1.4-0.708,1.4-1.584V8.028c0-0.876-0.624-1.584-1.4-1.584s-1.4,0.708-1.4,1.584v4.848
				C74.92,13.752,75.544,14.46,76.32,14.46z"/>
			<path d="M88.344,14.46c0.772,0,1.4-0.708,1.4-1.584V8.028c0-0.876-0.624-1.584-1.4-1.584s-1.4,0.708-1.4,1.584v4.848
				C86.944,13.752,87.568,14.46,88.344,14.46z"/>
			<path d="M100.364,14.46c0.772,0,1.4-0.708,1.4-1.584V8.028c0-0.876-0.624-1.584-1.4-1.584s-1.4,0.708-1.4,1.584v4.848
				C98.964,13.752,99.588,14.46,100.364,14.46z"/>
			<path d="M57.172,52.836c-0.712-0.328-1.532,0.064-1.82,0.876L47.1,76.888c-0.288,0.812,0.056,1.736,0.772,2.064
				c0.172,0.076,0.352,0.116,0.524,0.116c0.552,0,1.076-0.376,1.296-0.992L57.944,54.9C58.236,54.088,57.888,53.164,57.172,52.836z"
				/>
			<path d="M62.444,38.284c-0.716-0.328-1.528,0.064-1.82,0.876c-2.044,5.74-2.444,7.052-2.704,7.892
				c-0.116,0.372-0.2,0.644-0.396,1.2c-0.288,0.812,0.06,1.736,0.776,2.064c0.172,0.08,0.348,0.116,0.524,0.116
				c0.552,0,1.076-0.376,1.296-0.992c0.224-0.624,0.316-0.928,0.444-1.34c0.252-0.828,0.652-2.116,2.656-7.752
				C63.504,39.536,63.16,38.612,62.444,38.284z"/>
			<path d="M59.544,124.756c0.004,0,0.012,0,0.016,0c0.776-0.008,1.4-0.672,1.392-1.476c-0.084-7.924,3.816-14.552,10.988-18.664
				c10.024-5.744,23.728-5.304,33.344,1.08c6.14,4.08,13.216,12.284,12.048,28.188c-1.072,14.592-9.372,23.344-23.376,24.648
				c-0.772,0.072-1.348,0.78-1.276,1.584c0.064,0.76,0.68,1.328,1.4,1.328c0.044,0,0.084-0.004,0.128-0.004
				c15.308-1.428,24.764-11.388,25.936-27.336c0.992-13.532-3.744-24.492-13.34-30.868c-10.444-6.94-25.348-7.42-36.236-1.176
				c-8.12,4.656-12.54,12.204-12.44,21.256C58.14,124.116,58.772,124.756,59.544,124.756z"/>
			<path d="M84.072,108.392c-1.96,1.992-2.308,5.38-0.528,7.632c1.756,2.22,5.076,2.616,7.32,0.968
				c1.472-1.08,0.06-3.608-1.424-2.52c-2.708,1.984-5.792-1.56-3.376-4.012C87.364,109.14,85.372,107.076,84.072,108.392z"/>
			<path d="M58.144,162.084c4.188,2.576,8.832,3.8,13.484,3.8c9.972,0,20-5.612,25.784-15.548l0.736-1.256L74.68,134.652
				c0,0-0.004-0.004-0.008-0.004l-0.076-0.048l-24.584-15.112l-0.716,1.268C41.008,135.452,44.976,153.988,58.144,162.084z
				 M89.996,147.46c-3.408,3.464-7.3,5.824-11.248,7.116l-3.432-16.14L89.996,147.46z M76.02,155.32
				c-3.88,0.752-7.7,0.336-11.112-1.256l7.944-13.64L76.02,155.32z M62.436,152.656c-3.796-2.656-6.368-6.788-7.544-11.708
				l16.156-3.076L62.436,152.656z M55.284,126.124l8.388,5.156l6.24,3.836l-15.576,2.968
				C53.876,134.328,54.156,130.252,55.284,126.124z M51.044,123.516l1.792,1.1c-3.772,12.828-0.228,25.512,8.932,31.14
				c3.168,1.948,6.736,2.888,10.42,2.888c6.972,0,14.344-3.396,20.276-9.668l1.772,1.088c-7.94,12.26-23.192,16.54-34.656,9.504
				C48.124,152.528,44.456,136.604,51.044,123.516z"/>
			<path d="M208.736,205.584c-0.976-0.408-24.168-9.808-47.936-2.588c-2.124,0.644-4.152,1.428-6.128,2.268
				c0.792-0.964,1.604-1.908,2.3-2.968c8.96-13.656,4.856-29.696,4.672-30.372l-0.404-1.524l-1.62,0.492
				c-0.672,0.204-14.528,4.524-24.012,14.568V97.004c0-7.496-1.832-14.92-5.3-21.476c-2.14-4.048-5.56-13.252-8.872-22.156
				c-6.132-16.504-9.596-25.356-12.184-28.444l-0.18-4.184c2.796-0.664,4.908-3.48,4.908-6.844V6.996
				c0-3.856-2.772-6.996-6.172-6.996H56.856c-3.404,0-6.176,3.14-6.176,6.996V13.9c0,3.364,2.108,6.18,4.908,6.844l-0.18,4.188
				c-2.588,3.088-6.052,11.94-12.184,28.444c-3.308,8.904-6.728,18.108-8.872,22.156c-3.468,6.552-5.296,13.98-5.296,21.476v119.408
				c0,9.692,7.464,17.58,16.64,17.58h73.272c0.84,0,1.656-0.108,2.456-0.252l0.396,0.164l0.004,0.004l0.472,0.196
				c0.708,0.292,13.064,5.308,28.86,5.308c6.012,0,12.524-0.728,19.08-2.716c23.768-7.212,38.504-28.104,39.12-28.992l1.004-1.444
				L208.736,205.584z M134.348,191.916c6.8-10.368,19.916-15.96,24.572-17.684c0.764,4.292,2.068,16.328-4.652,26.568
				c-2.708,4.128-6.416,7.424-10.188,10.084c-6.088,3.932-11.064,8.356-14.776,12.156c2.776-5.228,5.408-12.1,5.476-19.54
				c0.032-3.516-0.528-6.816-1.396-9.844C133.708,193.076,133.972,192.484,134.348,191.916z M54.68,13.9V6.996
				c0-1.36,0.976-2.464,2.176-2.464h50.952c1.2,0,2.176,1.104,2.176,2.464V13.9c0,1.36-0.976,2.464-2.176,2.464H56.856
				C55.652,16.364,54.68,15.26,54.68,13.9z M45.692,229.46c-6.968,0-12.64-5.852-12.64-13.048V97.004
				c0-3.292,0.404-6.572,1.18-9.752h84.036c0.772,0,1.4-0.708,1.4-1.584c0-0.876-0.624-1.584-1.4-1.584H35.204
				c0.708-2.136,1.524-4.236,2.576-6.224c2.288-4.32,5.608-13.26,9.128-22.724c3.8-10.224,9.54-25.672,11.548-27.252
				c0.536-0.396,0.872-1.06,0.904-1.784l0.216-4.976h45.516l0.216,4.976c0.032,0.7,0.396,1.384,0.904,1.78
				c2.012,1.584,7.748,17.032,11.548,27.252c3.516,9.464,6.836,18.404,9.128,22.724c3.092,5.852,4.724,12.472,4.724,19.148v77.528
				H43.324c-0.772,0-1.4,0.708-1.4,1.584c0,0.876,0.624,1.584,1.4,1.584h76.4c-3.176,4.196-10.36,15.036-10.472,27.408
				c-0.096,10.852,5.268,19.76,8.712,24.352H45.692z M131.604,177.704v10.968c-2.164-5.008-4.92-8.832-6.664-10.968H131.604z
				 M121.712,229.624c-2.728-3.26-9.736-12.792-9.628-24.488c0.104-11.836,7.484-22.564,10.236-26.152
				c2.724,3.264,9.732,12.792,9.628,24.488C131.844,215.308,124.464,226.036,121.712,229.624z M161.616,205.704
				c17.572-5.336,35.244-1.02,42.536,1.28l-28.84,8.784c-0.004,0-0.008,0.004-0.012,0.004l-49.052,14.94
				C131.164,224.744,143.916,211.08,161.616,205.704z M126.428,232.56l15.032-4.58c0.072,0.104,0.112,0.232,0.228,0.3l14.108,8.096
				C142.964,237.196,131.64,234.236,126.428,232.56z M169.416,233.98c-3.504,1.06-7.012,1.732-10.444,2.12l-15.316-8.788
				l14.996-4.568c0.016,0.012,0.016,0.036,0.036,0.044l16.092,9.232C173.04,232.744,171.264,233.42,169.416,233.98z M176.86,231.124
				l-15.856-9.096l14.428-4.396l12.4,7.116C184.528,227.076,180.86,229.28,176.86,231.124z M189.432,223.584
				c-0.008-0.004-0.008-0.016-0.016-0.02l-11.604-6.66l27.276-8.308C202.4,211.912,196.972,217.976,189.432,223.584z"/>
		</g>
	</g>
</g>
</svg>