<?xml version="1.0" ?>
<!-- Uploaded to: SVG Repo, www.svgrepo.com, Generator: SVG Repo Mixer Tools -->
<svg fill="#000000" width="800px" height="800px" viewBox="0 0 32 32" xmlns="http://www.w3.org/2000/svg">
<title/>
<g data-name="Layer 7" id="Layer_7">
<path d="M23.91,16.14l3.88-3.62a3,3,0,0,0,.15-4.24L24.53,4.63a3,3,0,0,0-4.23-.15L16.13,8.36l-4-4a3,3,0,0,0-4.24,0L4.33,7.87a3,3,0,0,0,0,4.24l3.76,3.75L4.21,19.48a3,3,0,0,0-.15,4.24l3.41,3.65a3,3,0,0,0,2.1,1h.1a2.94,2.94,0,0,0,2-.81l4.17-3.88,2.06,2.07h0a.77.77,0,0,0,.29.19s0,0,.07,0a1,1,0,0,0,.34.07h6.74a1.09,1.09,0,0,0,.39-.08,1,1,0,0,0,.32-.21l1.58-1.58h0a3,3,0,0,0,0-4.24ZM17.55,9.78l4.12-3.84a1,1,0,0,1,.7-.27,1,1,0,0,1,.7.32l3.41,3.65a1,1,0,0,1,.27.72,1,1,0,0,1-.32.7h0l-3.94,3.66L18.58,10.8Zm-3.1,12.44-4.12,3.84a1,1,0,0,1-.7.27,1,1,0,0,1-.7-.32L5.52,22.36a1,1,0,0,1-.27-.72,1,1,0,0,1,.32-.7l3.94-3.66,4.17,4.17ZM20.19,24l.33-.72,1.79.72Zm6.06-1.29h0l-.56.57a1,1,0,0,0-.32-.21l-5-2a1,1,0,0,0-1.28.52l-.76,1.68L5.75,10.69a1,1,0,0,1,0-1.4L9.29,5.75a1,1,0,0,1,1.4,0L26.25,21.31a1,1,0,0,1,0,1.4Z"/>
<path d="M11.5,9A2.5,2.5,0,1,0,14,11.5,2.5,2.5,0,0,0,11.5,9Zm0,3a.5.5,0,1,1,.5-.5A.5.5,0,0,1,11.5,12Z"/>
</g>
</svg>