<?xml version="1.0" encoding="utf-8"?><!-- Uploaded to: SVG Repo, www.svgrepo.com, Generator: SVG Repo Mixer Tools -->
<svg fill="#000000" width="800px" height="800px" viewBox="0 0 24 24" id="molecule" data-name="Line Color" xmlns="http://www.w3.org/2000/svg" class="icon line-color"><path id="secondary" d="M15,9l2-2m-2,8,2,2M9,15,7,17M9,9,7,7" style="fill: none; stroke: rgb(44, 169, 188); stroke-linecap: round; stroke-linejoin: round; stroke-width: 2;"></path><path id="primary" d="M16,12a4,4,0,1,1-4-4A4,4,0,0,1,16,12Zm3-9a2,2,0,1,0,2,2A2,2,0,0,0,19,3Zm2,16a2,2,0,1,0-2,2A2,2,0,0,0,21,19ZM5,21a2,2,0,1,0-2-2A2,2,0,0,0,5,21ZM3,5A2,2,0,1,0,5,3,2,2,0,0,0,3,5Z" style="fill: none; stroke: rgb(0, 0, 0); stroke-linecap: round; stroke-linejoin: round; stroke-width: 2;"></path></svg>