<?xml version="1.0" ?>
<!DOCTYPE svg  PUBLIC '-//W3C//DTD SVG 1.1//EN'  'http://www.w3.org/Graphics/SVG/1.1/DTD/svg11.dtd'>
<!-- Uploaded to: SVG Repo, www.svgrepo.com, Generator: SVG Repo Mixer Tools -->
<svg fill="#000000" width="800px" height="800px" viewBox="0 0 100 100" version="1.1" xml:space="preserve" xmlns="http://www.w3.org/2000/svg" xmlns:xlink="http://www.w3.org/1999/xlink">
<g id="_x31_"/>
<g id="_x32_"/>
<g id="_x33_"/>
<g id="_x34_"/>
<g id="_x35_"/>
<g id="_x36_"/>
<g id="_x37_"/>
<g id="_x38_"/>
<g id="_x39_"/>
<g id="_x31_0"/>
<g id="_x31_1"/>
<g id="_x31_2"/>
<g id="_x31_3"/>
<g id="_x31_4"/>
<g id="_x31_5"/>
<g id="_x31_6"/>
<g id="_x31_7"/>
<g id="_x31_8"/>
<g id="_x31_9"/>
<g id="_x32_0"/>
<g id="_x32_1"/>
<g id="_x32_2"/>
<g id="_x32_3"/>
<g id="_x32_4"/>
<g id="_x32_5">
<path d="M68.7,79.1c-0.5,0-1-0.2-1.4-0.6c-0.8-0.8-0.8-2,0-2.8l8.4-8.4c0.8-0.8,2-0.8,2.8,0c0.8,0.8,0.8,2,0,2.8l-8.4,8.4   C69.8,78.9,69.3,79.1,68.7,79.1z M89.2,68.7c-0.8,0.8-2,0.8-2.8,0c-4.5-4.5-15.6-4-21-3.3c-0.7,5.4-1.2,16.5,3.3,21   c0.8,0.8,0.8,2,0,2.8c-0.4,0.4-0.9,0.6-1.4,0.6s-1-0.2-1.4-0.6c-5.7-5.7-5.2-17.4-4.6-22.9c-1.6,0.2-3.8,0.3-6.2,0.3   c-5.7,0-12.7-0.9-16.7-4.9c-5.7-5.7-5.2-17.4-4.6-22.9c-1.6,0.2-3.8,0.3-6.2,0.3c-5.7,0-12.7-0.9-16.7-4.9c-0.8-0.8-0.8-2,0-2.8   c0.8-0.8,2-0.8,2.8,0c4.5,4.5,15.6,4,21,3.3c0.7-5.4,1.2-16.5-3.3-21c-0.8-0.8-0.8-2,0-2.8c0.8-0.8,2-0.8,2.8,0   c5.7,5.7,5.2,17.4,4.6,22.9c5.5-0.6,17.2-1.1,22.9,4.6s5.2,17.4,4.6,22.9c5.5-0.6,17.2-1.1,22.9,4.6C90,66.6,90,67.9,89.2,68.7z    M49.2,37.6c-4.2-0.4-8.5-0.1-11.3,0.3c-0.4,2.8-0.7,7.2-0.3,11.3L49.2,37.6z M46.2,61.4l15.2-15.2c0,0,0.1-0.1,0.1-0.1   c-0.6-2-1.4-3.7-2.7-4.9c-1.2-1.2-2.9-2.1-4.9-2.7c0,0-0.1,0.1-0.1,0.1L38.6,53.8c0,0-0.1,0.1-0.1,0.1c0.6,2,1.4,3.7,2.7,4.9   s2.9,2.1,4.9,2.7C46.1,61.5,46.1,61.4,46.2,61.4z M62.1,62.1c0.4-2.8,0.7-7.2,0.3-11.3L50.8,62.4C55,62.8,59.3,62.5,62.1,62.1z    M25,33.4l8.4-8.4c0.8-0.8,0.8-2,0-2.8c-0.8-0.8-2-0.8-2.8,0l-8.4,8.4c-0.8,0.8-0.8,2,0,2.8c0.4,0.4,0.9,0.6,1.4,0.6   S24.6,33.8,25,33.4z"/>
</g>
</svg>