<?xml version='1.0' encoding='utf-8'?>
<!DOCTYPE svg PUBLIC '-//W3C//DTD SVG 1.1//EN' 'http://www.w3.org/Graphics/SVG/1.1/DTD/svg11.dtd'>
<!-- Uploaded to: SVG Repo, www.svgrepo.com, Generator: SVG Repo Mixer Tools -->
<svg fill="#000000" height="800px" width="800px" version="1.1" xmlns="http://www.w3.org/2000/svg" viewBox="0 0 512 512" xmlns:xlink="http://www.w3.org/1999/xlink" enable-background="new 0 0 512 512">
  <g>
    <g>
      <path d="m494.8,398.4l-76-76c17.3-30.3 13-69.7-12.9-95.6-31-31-81.4-31-112.4,0-12.1,12.1-19.8,27.7-22.4,44.3-16.6,2.5-32.2,10.3-44.3,22.4-31,31-31,81.4 0,112.4 25.9,25.9 65.2,30.1 95.6,12.9l76,76c8.2,8.2 21.5,8.2 29.8,0 8.2-8.2 8.2-21.5 0-29.8l-88.9-88.9c-8.2-8.2-21.5-8.2-29.8,0-14.6,14.6-38.3,14.6-52.9,0-14.6-14.6-14.6-38.3 0-52.9 8.5-8.5 20.2-12.3 32.2-10.5 6.6,1 13.3-1.2 18.1-5.9 4.7-4.7 6.9-11.4 5.9-18.1-1.8-11.9 2-23.7 10.5-32.2 14.6-14.6 38.3-14.6 52.9,0 14.6,14.6 14.6,38.3 0,52.9-8.2,8.2-8.2,21.5 0,29.8l88.9,88.9c8.2,8.2 21.5,8.2 29.8,0 8.2-8.1 8.2-21.5-0.1-29.7z"/>
      <path d="m240.8,240.8c16.6-2.5 32.2-10.3 44.3-22.4 31-31 31-81.4 0-112.4-25.9-25.9-65.2-30.1-95.6-12.9l-76-76c-8.2-8.2-21.5-8.2-29.8,0-8.2,8.2-8.2,21.5 0,29.8l88.9,88.9c8.2,8.2 21.5,8.2 29.8,0 14.6-14.6 38.3-14.6 52.9,0 14.6,14.6 14.6,38.3 0,52.9-8.5,8.5-20.2,12.3-32.2,10.5-6.6-1-13.3,1.2-18.1,5.9-4.7,4.7-6.9,11.4-5.9,18.1 1.8,11.9-2,23.7-10.5,32.2-14.6,14.6-38.3,14.6-52.9,0-14.6-14.6-14.6-38.3 0-52.9 8.2-8.2 8.2-21.5 0-29.8l-88.8-88.9c-8.2-8.2-21.5-8.2-29.8,0s-8.2,21.5 0,29.8l76,76c-17.3,30.3-13,69.7 12.9,95.6 31,31 81.4,31 112.4,0 12.2-12.1 19.9-27.8 22.4-44.4z"/>
    </g>
  </g>
</svg>